<?xml version="1.0" encoding="UTF-8" standalone="no"?>
<!-- Created with Inkscape (http://www.inkscape.org/) -->

<svg
   width="512"
   height="512"
   viewBox="0 0 135.46666 135.46667"
   version="1.1"
   id="svg5"
   xml:space="preserve"
   inkscape:version="1.2.2 (b0a8486541, 2022-12-01)"
   sodipodi:docname="6.svg"
   xmlns:inkscape="http://www.inkscape.org/namespaces/inkscape"
   xmlns:sodipodi="http://sodipodi.sourceforge.net/DTD/sodipodi-0.dtd"
   xmlns="http://www.w3.org/2000/svg"
   xmlns:svg="http://www.w3.org/2000/svg"><sodipodi:namedview
     id="namedview7"
     pagecolor="#505050"
     bordercolor="#eeeeee"
     borderopacity="1"
     inkscape:showpageshadow="0"
     inkscape:pageopacity="0"
     inkscape:pagecheckerboard="0"
     inkscape:deskcolor="#505050"
     inkscape:document-units="mm"
     showgrid="false"
     inkscape:zoom="0.72337262"
     inkscape:cx="302.05733"
     inkscape:cy="269.57061"
     inkscape:window-width="1876"
     inkscape:window-height="1043"
     inkscape:window-x="44"
     inkscape:window-y="37"
     inkscape:window-maximized="1"
     inkscape:current-layer="layer1" /><defs
     id="defs2"><inkscape:perspective
       sodipodi:type="inkscape:persp3d"
       inkscape:vp_x="0 : -13.033333 : 1"
       inkscape:vp_y="0 : 1000 : 0"
       inkscape:vp_z="209.99999 : -13.033333 : 1"
       inkscape:persp3d-origin="105 : -62.533338 : 1"
       id="perspective1118" /></defs><g
     inkscape:label="Layer 1"
     inkscape:groupmode="layer"
     id="layer1"><path
       style="fill:#80b3ff;stroke-width:4.42046;stroke-linecap:round;stroke-linejoin:round"
       d="m 70.270199,141.5967 c -2.792014,-0.0317 -4.682875,4.27355 -2.396106,6.93638 1.060489,1.23489 3.876325,1.14099 4.973055,-0.16589 1.561984,-1.86127 0.818194,-5.46834 -1.334983,-6.47383 -0.426096,-0.19896 -0.843101,-0.29213 -1.241966,-0.29666 z"
       id="path1571" /><path
       style="fill:#80b3ff;stroke-width:4.42046;stroke-linecap:round;stroke-linejoin:round"
       d="m 80.117048,132.19638 c -1.921752,-0.0775 -3.734729,1.60386 -3.734729,3.8618 0,2.99787 3.044767,4.81777 5.312902,3.17533 2.056048,-1.48884 1.901882,-5.59786 -0.250984,-6.68805 -0.43409,-0.21982 -0.883706,-0.3312 -1.327189,-0.34908 z"
       id="path1569" /><path
       style="fill:#e6e6e6;stroke-width:4.42046;stroke-linecap:round;stroke-linejoin:round"
       d="m 71.674818,44.870004 c -2.50686,-0.003 -4.401159,1.920067 -4.381168,4.446996 0.02695,3.405221 3.521766,5.562576 6.186945,3.81906 3.252703,-2.127862 1.912702,-8.261791 -1.805777,-8.266056 z"
       id="path1563" /><path
       style="fill:#e6e6e6;stroke-width:4.42046;stroke-linecap:round;stroke-linejoin:round"
       d="m 51.769625,27.226532 0.06135,38.039931 0.06135,38.040447 0.877161,1.10221 c 0.482408,0.60635 3.388124,3.60981 6.457176,6.67431 l 5.579995,5.5716 -1.184798,1.16887 c -15.797373,15.58618 -19.967027,19.74588 -19.967027,19.91812 0,0.65015 18.67809,19.14026 19.623017,19.42555 0.895803,0.27047 1.907944,0.089 2.521341,-0.45239 0.843845,-0.74463 0.816906,-3.72187 -0.03379,-3.72187 -0.203833,0 -13.422575,-13.48513 -13.548827,-13.82188 -0.04696,-0.1252 4.827115,-5.04479 10.831578,-10.93253 l 10.917323,-10.70506 -1.490869,-1.61515 c -0.819973,-0.88843 -3.730143,-3.90191 -6.467051,-6.69619 -2.736898,-2.7943 -5.533788,-5.69993 -6.215012,-6.45703 L 58.5542,101.38898 V 83.615739 l -5.13e-4,-17.773235 7.915827,0.08144 C 78.446391,66.046729 81.871299,65.556948 85.326053,63.226942 99.15418,53.900747 95.600205,32.185738 79.573006,28.076357 77.615718,27.574514 74.89853,27.46393 61.081785,27.322219 Z m 6.784032,7.090561 8.447941,0.169963 c 8.946801,0.179898 11.192331,0.440052 13.441792,1.556124 7.725479,3.833003 9.034307,16.466657 2.164861,20.898705 -1.810302,1.167987 -3.45417,1.406821 -10.896025,1.581057 -3.79799,0.08893 -8.312418,0.229007 -10.031837,0.311427 l -3.12622,0.149609 V 46.650535 h -5.12e-4 z"
       id="path1561" /><path
       style="fill:#80b3ff;stroke-width:4.42046;stroke-linecap:round;stroke-linejoin:round"
       d="m 81.601692,-3.1763122 c -1.78103,0.07023 -3.434894,1.7304468 -3.434894,4.14422325 0,3.13904905 2.954768,4.81803025 5.374223,3.05371815 1.851501,-1.350138 2.073816,-4.61451736 0.424557,-6.2295647 -0.71856,-0.7036495 -1.554331,-1.0002984 -2.363886,-0.9683767 z"
       id="path1555" /></g></svg>
