<?xml version="1.0" encoding="UTF-8" standalone="no"?>
<!-- Created with Inkscape (http://www.inkscape.org/) -->

<svg
   width="512"
   height="512"
   viewBox="0 0 135.46666 135.46667"
   version="1.1"
   id="svg5"
   xml:space="preserve"
   inkscape:version="1.2.2 (b0a8486541, 2022-12-01)"
   sodipodi:docname="7.svg"
   xmlns:inkscape="http://www.inkscape.org/namespaces/inkscape"
   xmlns:sodipodi="http://sodipodi.sourceforge.net/DTD/sodipodi-0.dtd"
   xmlns="http://www.w3.org/2000/svg"
   xmlns:svg="http://www.w3.org/2000/svg"><sodipodi:namedview
     id="namedview7"
     pagecolor="#505050"
     bordercolor="#eeeeee"
     borderopacity="1"
     inkscape:showpageshadow="0"
     inkscape:pageopacity="0"
     inkscape:pagecheckerboard="0"
     inkscape:deskcolor="#505050"
     inkscape:document-units="mm"
     showgrid="false"
     inkscape:zoom="0.72337262"
     inkscape:cx="302.05733"
     inkscape:cy="269.57061"
     inkscape:window-width="1876"
     inkscape:window-height="1043"
     inkscape:window-x="44"
     inkscape:window-y="37"
     inkscape:window-maximized="1"
     inkscape:current-layer="layer1" /><defs
     id="defs2"><inkscape:perspective
       sodipodi:type="inkscape:persp3d"
       inkscape:vp_x="0 : -13.033333 : 1"
       inkscape:vp_y="0 : 1000 : 0"
       inkscape:vp_z="209.99999 : -13.033333 : 1"
       inkscape:persp3d-origin="105 : -62.533338 : 1"
       id="perspective1118" /></defs><g
     inkscape:label="Layer 1"
     inkscape:groupmode="layer"
     id="layer1"><path
       style="fill:#80b3ff;stroke-width:4.42046;stroke-linecap:round;stroke-linejoin:round"
       d="m 34.113481,113.90409 c -2.716434,-0.0243 -4.880893,4.32507 -2.347265,7.00609 1.280149,1.35462 3.537554,1.4011 4.727261,0.0972 1.454034,-1.59358 1.213781,-4.87228 -0.462489,-6.31353 -0.634744,-0.54575 -1.290646,-0.78415 -1.917507,-0.78977 z"
       id="path1567" /><path
       style="fill:#3771c8;stroke-width:4.42046;stroke-linecap:round;stroke-linejoin:round"
       d="m 63.14632,-21.817682 c -1.214002,0.07917 -2.361212,0.81236 -2.600843,2.273114 -0.318398,1.940911 -0.389804,2.079579 -1.255994,2.428828 -0.540351,0.21787 -9.229351,8.566712 -23.014781,22.1138875 L 14.128264,26.761428 14.108551,30.93007 c -0.01075,2.292753 -0.04204,19.222673 -0.06958,37.621646 l -0.04987,33.452484 5.001624,5.07088 c 2.750956,2.78899 5.200206,5.36777 5.442813,5.73036 0.934721,1.39696 2.637667,1.94494 4.216444,1.35715 0.712638,-0.26533 1.16874,-0.69632 1.721078,-1.62736 0.28472,-0.47992 0.57091,-0.16983 -9.663934,-10.45571 l -1.795903,-1.80496 V 64.647173 c 0,-23.741466 0.0897,-35.656506 0.268652,-35.71492 C 19.327581,28.884 29.05545,19.464829 40.797312,8.0009792 52.539184,-3.4628855 63.017087,-13.65435 64.08179,-14.646711 c 2.036428,-1.898065 2.285109,-2.373665 2.291133,-4.38848 0.006,-1.904528 -1.66565,-2.884278 -3.226507,-2.782491 z"
       id="path1551" /></g></svg>
