<?xml version="1.0" encoding="UTF-8" standalone="no"?>
<!-- Created with Inkscape (http://www.inkscape.org/) -->

<svg
   width="512"
   height="512"
   viewBox="0 0 135.46666 135.46667"
   version="1.1"
   id="svg5"
   xml:space="preserve"
   inkscape:version="1.2.2 (b0a8486541, 2022-12-01)"
   sodipodi:docname="8.svg"
   xmlns:inkscape="http://www.inkscape.org/namespaces/inkscape"
   xmlns:sodipodi="http://sodipodi.sourceforge.net/DTD/sodipodi-0.dtd"
   xmlns="http://www.w3.org/2000/svg"
   xmlns:svg="http://www.w3.org/2000/svg"><sodipodi:namedview
     id="namedview7"
     pagecolor="#505050"
     bordercolor="#eeeeee"
     borderopacity="1"
     inkscape:showpageshadow="0"
     inkscape:pageopacity="0"
     inkscape:pagecheckerboard="0"
     inkscape:deskcolor="#505050"
     inkscape:document-units="mm"
     showgrid="false"
     inkscape:zoom="0.72337262"
     inkscape:cx="302.05733"
     inkscape:cy="269.57061"
     inkscape:window-width="1876"
     inkscape:window-height="1043"
     inkscape:window-x="44"
     inkscape:window-y="37"
     inkscape:window-maximized="1"
     inkscape:current-layer="layer1" /><defs
     id="defs2"><inkscape:perspective
       sodipodi:type="inkscape:persp3d"
       inkscape:vp_x="0 : -13.033333 : 1"
       inkscape:vp_y="0 : 1000 : 0"
       inkscape:vp_z="209.99999 : -13.033333 : 1"
       inkscape:persp3d-origin="105 : -62.533338 : 1"
       id="perspective1118" /></defs><g
     inkscape:label="Layer 1"
     inkscape:groupmode="layer"
     id="layer1"><path
       style="fill:#87aade;stroke-width:4.42046;stroke-linecap:round;stroke-linejoin:round"
       d="m 75.063456,-11.48155 c -1.17948,0.008 -2.431413,0.627861 -3.155323,1.9469294 -0.247524,0.4510313 -1.101828,1.416191 -1.898793,2.1443709 C 68.164315,-5.7044502 62.049439,0.23150381 41.990854,19.80825 L 25.890539,35.521583 25.693596,45.793091 c -0.108166,5.64926 -0.137081,19.122635 -0.06445,29.941302 l 0.131983,19.670296 0.481725,0.721071 c 0.26477,0.396577 3.991576,4.13916 8.281659,8.31644 4.695855,4.57238 7.799942,7.78956 7.799942,8.08387 0,1.88105 3.316647,3.08226 4.823394,1.74696 0.631175,-0.55936 1.123408,-2.30538 0.897956,-3.18502 -0.193454,-0.75479 -4.829136,-5.51308 -5.371105,-5.51308 -0.275711,0 -0.35127,-0.9547 -0.354398,-4.49432 -0.002,-2.471887 -0.06979,-19.923264 -0.150697,-38.781355 L 42.022007,28.011717 45.265146,24.91169 C 69.703913,1.5489635 77.976592,-6.941305 77.976592,-8.659876 c 0,-1.830056 -1.396686,-2.831912 -2.913157,-2.821674 z M 37.246448,31.981899 37.22151,63.372453 c -0.01368,17.264753 -0.09834,32.553016 -0.188114,33.974085 l -0.163177,2.583522 -2.993181,-3.071027 -2.993181,-3.071017 0.01347,-27.650883 0.01298,-27.651385 3.168303,-3.251674 z"
       id="path1553" /></g></svg>
