<?xml version="1.0" encoding="UTF-8" standalone="no"?>
<!-- Created with Inkscape (http://www.inkscape.org/) -->

<svg
   width="512"
   height="512"
   viewBox="0 0 135.46666 135.46667"
   version="1.1"
   id="svg5"
   xml:space="preserve"
   inkscape:version="1.2.2 (b0a8486541, 2022-12-01)"
   sodipodi:docname="9.svg"
   xmlns:inkscape="http://www.inkscape.org/namespaces/inkscape"
   xmlns:sodipodi="http://sodipodi.sourceforge.net/DTD/sodipodi-0.dtd"
   xmlns="http://www.w3.org/2000/svg"
   xmlns:svg="http://www.w3.org/2000/svg"><sodipodi:namedview
     id="namedview7"
     pagecolor="#505050"
     bordercolor="#eeeeee"
     borderopacity="1"
     inkscape:showpageshadow="0"
     inkscape:pageopacity="0"
     inkscape:pagecheckerboard="0"
     inkscape:deskcolor="#505050"
     inkscape:document-units="mm"
     showgrid="false"
     inkscape:zoom="0.72337262"
     inkscape:cx="302.05733"
     inkscape:cy="269.57061"
     inkscape:window-width="1876"
     inkscape:window-height="1043"
     inkscape:window-x="44"
     inkscape:window-y="37"
     inkscape:window-maximized="1"
     inkscape:current-layer="layer1" /><defs
     id="defs2"><inkscape:perspective
       sodipodi:type="inkscape:persp3d"
       inkscape:vp_x="0 : -13.033333 : 1"
       inkscape:vp_y="0 : 1000 : 0"
       inkscape:vp_z="209.99999 : -13.033333 : 1"
       inkscape:persp3d-origin="105 : -62.533338 : 1"
       id="perspective1118" /></defs><g
     inkscape:label="Layer 1"
     inkscape:groupmode="layer"
     id="layer1"><path
       style="fill:#3771c8;stroke-width:4.42046;stroke-linecap:round;stroke-linejoin:round"
       d="m 90.007026,74.402686 c -0.882068,-0.03072 -1.750238,0.412224 -2.212154,1.25741 -0.552327,1.010618 -0.654897,22.749556 -0.111193,23.562127 0.891139,1.331867 2.727094,1.511877 3.882299,0.380633 l 0.777916,-0.761779 V 87.250074 75.659081 l -0.818455,-0.674257 c -0.454646,-0.374617 -0.989174,-0.563723 -1.518413,-0.582138 z"
       id="path1565" /><path
       style="fill:#afc6e9;stroke-width:4.42046;stroke-linecap:round;stroke-linejoin:round"
       d="m 104.02406,26.985836 c -0.52599,0.05449 -1.06139,0.332363 -1.56987,0.829962 l -0.66514,0.651353 -0.0697,35.271687 -0.0691,35.27169 0.82156,0.676798 c 0.97169,0.800654 2.31141,0.893154 3.16312,0.217801 h 5.2e-4 l 0.57941,-0.45951 0.0484,-35.648258 0.0489,-35.647742 -0.77532,-0.652879 c -0.47036,-0.396202 -0.98671,-0.565396 -1.5127,-0.510902 z"
       id="path1559" /><path
       style="fill:#d7e3f4;stroke-width:4.42046;stroke-linecap:round;stroke-linejoin:round"
       d="m 119.00712,26.929352 c -0.47287,0.02565 -0.92652,0.264743 -1.44982,0.722588 l -0.86885,0.760253 -0.0701,35.235045 -0.0701,35.235059 0.46924,0.511415 c 1.00818,1.098208 2.89124,1.189798 3.91194,0.190317 l 0.54822,-0.53686 V 63.566334 28.084991 l -0.9042,-0.596396 c -0.60133,-0.396843 -1.09334,-0.584895 -1.56622,-0.559243 z"
       id="path1557" /></g></svg>
