<?xml version="1.0" encoding="UTF-8" standalone="no"?>
<!-- Created with Inkscape (http://www.inkscape.org/) -->

<svg
   width="512"
   height="512"
   viewBox="0 0 135.46666 135.46667"
   version="1.1"
   id="svg5"
   xml:space="preserve"
   inkscape:version="1.4.2 (ebf0e940d0, 2025-05-08)"
   sodipodi:docname="case.svg"
   xmlns:inkscape="http://www.inkscape.org/namespaces/inkscape"
   xmlns:sodipodi="http://sodipodi.sourceforge.net/DTD/sodipodi-0.dtd"
   xmlns="http://www.w3.org/2000/svg"
   xmlns:svg="http://www.w3.org/2000/svg"><sodipodi:namedview
     id="namedview7"
     pagecolor="#505050"
     bordercolor="#eeeeee"
     borderopacity="1"
     inkscape:showpageshadow="0"
     inkscape:pageopacity="0"
     inkscape:pagecheckerboard="0"
     inkscape:deskcolor="#505050"
     inkscape:document-units="px"
     showgrid="false"
     inkscape:zoom="0.72337262"
     inkscape:cx="299.2925"
     inkscape:cy="239.15752"
     inkscape:window-width="1872"
     inkscape:window-height="1015"
     inkscape:window-x="0"
     inkscape:window-y="0"
     inkscape:window-maximized="1"
     inkscape:current-layer="layer1"
     inkscape:clip-to-page="false" /><defs
     id="defs2" /><g
     inkscape:label="Layer 1"
     inkscape:groupmode="layer"
     id="layer1"><path
       d="M 26.719218,23.240473 H 41.043463 L 67.762566,110.53067 H 55.543108 L 49.111814,87.787276 H 18.533935 L 12.219574,110.53067 H 1.1524558e-4 Z M 46.305431,78.315735 33.852107,33.647475 21.398784,78.315735 Z m 53.37974,33.910455 q -9.471542,0 -15.66897,-5.43736 -6.138963,-5.49584 -6.138963,-15.72744 0,-8.477615 4.092642,-13.213386 4.092642,-4.794237 10.699334,-6.723625 6.606693,-1.929388 14.090376,-1.929388 h 14.44118 v -1.695523 q 0,-8.360682 -4.26804,-11.634796 -4.20957,-3.274113 -11.86866,-3.274113 -5.963562,0 -11.69326,1.637057 -5.729698,1.637056 -10.699334,4.560372 V 48.030187 q 5.3789,-1.987854 10.874733,-3.274113 5.495833,-1.286259 11.225531,-1.286259 5.84663,0 11.34246,1.637057 5.5543,1.57859 9.58848,5.261967 4.03417,3.624912 5.3789,9.763874 0.93546,4.326507 0.93546,13.037986 v 13.388785 q 0,5.495833 0.58466,12.160992 0.64313,6.665164 2.86485,11.810194 h -10.81627 q -0.99392,-2.28019 -1.57859,-4.8527 -0.58466,-2.63099 -0.93546,-5.08657 -3.44951,5.90509 -9.58847,8.76994 -6.0805,2.86485 -12.862589,2.86485 z m 2.630989,-9.00381 q 6.66515,0 10.81626,-3.274112 4.20958,-3.274113 6.13896,-8.53608 1.92939,-5.320435 1.92939,-11.400931 v -2.397118 h -13.62265 q -4.56037,0 -8.945342,1.052393 -4.326507,0.993928 -7.191356,3.858777 -2.806383,2.864849 -2.806383,8.360682 0,6.197428 3.80031,9.296139 3.80031,3.04025 9.880811,3.04025 z"
       id="text3"
       style="font-size:119.739px;line-height:1.25;font-family:Hack;-inkscape-font-specification:Hack;text-align:center;letter-spacing:0px;word-spacing:0px;text-anchor:middle;stroke-width:2.99349"
       aria-label="Aa" /></g></svg>
