<?xml version="1.0" encoding="UTF-8" standalone="no"?>
<!-- Created with Inkscape (http://www.inkscape.org/) -->

<svg
   width="512"
   height="512"
   viewBox="0 0 135.46666 135.46667"
   version="1.1"
   id="svg5"
   xml:space="preserve"
   inkscape:version="1.4.2 (ebf0e940d0, 2025-05-08)"
   sodipodi:docname="pattern.svg"
   xmlns:inkscape="http://www.inkscape.org/namespaces/inkscape"
   xmlns:sodipodi="http://sodipodi.sourceforge.net/DTD/sodipodi-0.dtd"
   xmlns="http://www.w3.org/2000/svg"
   xmlns:svg="http://www.w3.org/2000/svg"><sodipodi:namedview
     id="namedview7"
     pagecolor="#505050"
     bordercolor="#eeeeee"
     borderopacity="1"
     inkscape:showpageshadow="0"
     inkscape:pageopacity="0"
     inkscape:pagecheckerboard="0"
     inkscape:deskcolor="#505050"
     inkscape:document-units="px"
     showgrid="false"
     inkscape:zoom="0.72337262"
     inkscape:cx="299.2925"
     inkscape:cy="239.15752"
     inkscape:window-width="1872"
     inkscape:window-height="1015"
     inkscape:window-x="0"
     inkscape:window-y="0"
     inkscape:window-maximized="1"
     inkscape:current-layer="layer1"
     inkscape:clip-to-page="false" /><defs
     id="defs2" /><g
     inkscape:label="Layer 1"
     inkscape:groupmode="layer"
     id="layer1"><path
       d="m 17.706014,63.446072 q -3.786153,0 -7.015518,-1.336289 Q 7.461131,60.717815 5.1226252,58.379309 1.8382072e-4,53.256868 1.8382072e-4,45.684563 q 0,-5.17812 2.33850587928,-9.186987 2.3385058,-4.064546 6.3473729,-6.347373 4.0645454,-2.282827 9.0756294,-2.282827 3.563438,0 6.848482,1.336289 3.229365,1.336289 5.734907,3.841831 2.561221,2.56122 3.89751,5.734907 1.336289,3.229365 1.336289,6.848481 0,7.572305 -5.122442,12.694746 -2.338505,2.338506 -5.623549,3.730474 -3.285044,1.391968 -7.126875,1.391968 z m 0,-7.516626 q 4.28726,0 7.349589,-2.950972 1.280611,-1.28061 2.115791,-3.118008 0.89086,-1.893076 0.89086,-4.231582 0,-4.231582 -3.006651,-7.238232 -3.118007,-2.950972 -7.238232,-2.950972 -4.342939,0 -7.293911,2.895293 -3.0066503,2.895293 -3.0066503,7.34959 0,4.398618 2.9509713,7.34959 1.224932,1.224931 3.062329,2.060112 1.837398,0.835181 4.175904,0.835181 z M 0.50129221,76.419211 64.531809,52.143293 v 6.291695 L 0.50129221,82.376833 Z M 47.104373,107.59929 q -7.572305,0 -12.694746,-5.12244 -5.011084,-5.122444 -5.011084,-12.583391 0,-5.233799 2.338506,-9.242666 2.338506,-4.008867 6.347373,-6.291694 4.008867,-2.338506 9.019951,-2.338506 7.293911,0 12.52771,5.233799 1.447646,1.447646 2.394184,2.950971 0.946538,1.503326 1.559004,2.895293 1.391968,3.118008 1.391968,6.737124 0,3.507759 -1.280611,6.737124 -1.224931,3.229365 -3.897509,5.901946 -5.289478,5.12244 -12.694746,5.12244 z m 0,-7.51663 q 4.28726,0 7.293911,-3.006647 2.950971,-2.950972 2.950971,-7.238233 0,-4.28726 -3.00665,-7.293911 -3.00665,-3.00665 -7.238232,-3.00665 -4.287261,0 -7.238233,2.950972 -2.950971,2.950971 -2.950971,7.349589 0,4.34294 2.950971,7.293911 2.950972,2.950969 7.238233,2.950969 z M 66.814634,45.239133 H 76.94816 l 10.857348,50.389233 8.908594,-32.182294 h 8.741558 l 9.01995,32.182294 10.85735,-50.389233 h 10.13352 l -14.58782,62.360157 h -9.79945 l -9.96649,-34.186729 -9.910811,34.186729 h -9.799453 z"
       id="text2"
       style="font-size:114.03px;line-height:1.25;font-family:Hack;-inkscape-font-specification:Hack;text-align:center;letter-spacing:0px;word-spacing:0px;text-anchor:middle;stroke-width:2.85076"
       aria-label="%w" /></g></svg>
