<?xml version="1.0" encoding="UTF-8" standalone="no"?>
<!-- Created with Inkscape (http://www.inkscape.org/) -->

<svg
   width="512"
   height="512"
   viewBox="0 0 135.46666 135.46667"
   version="1.1"
   id="svg5"
   xml:space="preserve"
   inkscape:version="1.4.2 (ebf0e940d0, 2025-05-08)"
   sodipodi:docname="whole.svg"
   xmlns:inkscape="http://www.inkscape.org/namespaces/inkscape"
   xmlns:sodipodi="http://sodipodi.sourceforge.net/DTD/sodipodi-0.dtd"
   xmlns="http://www.w3.org/2000/svg"
   xmlns:svg="http://www.w3.org/2000/svg"><sodipodi:namedview
     id="namedview7"
     pagecolor="#505050"
     bordercolor="#eeeeee"
     borderopacity="1"
     inkscape:showpageshadow="0"
     inkscape:pageopacity="0"
     inkscape:pagecheckerboard="0"
     inkscape:deskcolor="#505050"
     inkscape:document-units="px"
     showgrid="false"
     inkscape:zoom="0.72337262"
     inkscape:cx="140.31496"
     inkscape:cy="201.83236"
     inkscape:window-width="1872"
     inkscape:window-height="1015"
     inkscape:window-x="0"
     inkscape:window-y="0"
     inkscape:window-maximized="1"
     inkscape:current-layer="layer1"
     inkscape:clip-to-page="false" /><defs
     id="defs2" /><g
     inkscape:label="Layer 1"
     inkscape:groupmode="layer"
     id="layer1"><path
       id="rect4"
       style="fill:#29252b;stroke-width:1.46335;stroke-linecap:round"
       d="m 130.175,99.747917 h 5.29167 V 135.46667 H 130.175 Z" /><path
       id="rect3"
       style="fill:#29252b;stroke-width:1.46335;stroke-linecap:round"
       d="M 0,99.747917 H 5.2916665 V 135.46667 H 0 Z" /><path
       id="rect5"
       style="fill:#29252b;stroke-width:1.11545;stroke-linecap:round"
       d="M 2.7270507e-6,130.175 H 135.46666 v 5.29167 H 2.7270507e-6 Z" /><path
       d="m 31.090469,107.43185 q -8.115029,0 -13.424863,-4.65863 -5.259741,-4.708721 -5.259741,-13.474956 0,-7.263452 3.506494,-11.320967 3.506494,-4.107607 9.166977,-5.760669 5.660483,-1.653061 12.072358,-1.653061 h 12.372915 v -1.45269 q 0,-7.163267 -3.656773,-9.968462 -3.606679,-2.805195 -10.168832,-2.805195 -5.109463,0 -10.018555,1.402597 -4.909091,1.402598 -9.166977,3.907237 v -9.21707 q 4.608535,-1.703155 9.317256,-2.805196 4.70872,-1.102041 9.617812,-1.102041 5.009277,0 9.717998,1.402598 4.758813,1.352505 8.215214,4.508349 3.456401,3.105752 4.608535,8.365493 0.801485,3.706865 0.801485,11.170688 V 85.44112 q 0,4.708721 0.500927,10.419297 0.551021,5.710573 2.454546,10.118743 h -9.267163 q -0.851577,-1.95362 -1.352505,-4.1577 -0.500927,-2.254178 -0.801484,-4.358075 -2.955473,5.059375 -8.215214,7.513915 -5.209649,2.45455 -11.02041,2.45455 z m 2.254175,-7.71429 q 5.710576,0 9.267162,-2.805195 3.60668,-2.805195 5.259741,-7.313545 1.653062,-4.558442 1.653062,-9.76809 V 77.776926 H 37.852993 q -3.907236,0 -7.664194,0.90167 -3.706865,0.851577 -6.161411,3.306123 -2.404453,2.454546 -2.404453,7.163266 0,5.309834 3.25603,7.964751 3.25603,2.604824 8.465679,2.604824 z m 68.326546,7.71429 q -10.619672,0 -15.428578,-8.515774 l -0.90167,7.063084 h -8.3154 V 28.034804 h 9.21707 v 29.003715 q 2.304268,-4.358072 6.361782,-6.411875 4.057515,-2.103897 9.116886,-2.103897 6.01113,0 10.11874,2.604825 4.10761,2.554731 6.56215,6.862709 2.50464,4.257886 3.55659,9.467534 1.10204,5.209648 1.10204,10.419297 0,5.259741 -1.10204,10.519482 -1.10204,5.209648 -3.60668,9.517626 -2.45455,4.30798 -6.56215,6.9128 -4.10761,2.60483 -10.11874,2.60483 z m -1.853437,-7.814476 q 4.408167,0 7.063077,-2.053803 2.70501,-2.053804 4.05752,-5.359927 1.4026,-3.306123 1.90352,-7.063081 0.50093,-3.756957 0.50093,-7.163266 0,-3.406308 -0.50093,-7.163266 -0.50092,-3.807051 -1.90352,-7.063081 -1.35251,-3.306123 -4.05752,-5.359927 -2.65491,-2.053803 -7.063077,-2.053803 -4.358071,0 -7.063081,2.053803 -2.654917,2.053804 -4.107607,5.309834 -1.402598,3.25603 -1.903525,7.063081 -0.500928,3.756958 -0.500928,7.163266 0,3.456402 0.500928,7.263452 0.500927,3.756958 1.903525,7.063081 1.45269,3.25603 4.107607,5.309834 2.70501,2.053803 7.063081,2.053803 z"
       id="text5"
       style="font-size:102.59px;line-height:1.25;font-family:Hack;-inkscape-font-specification:Hack;text-align:center;letter-spacing:0px;word-spacing:0px;text-anchor:middle;stroke-width:2.56476"
       aria-label="ab" /></g></svg>
