<?xml version="1.0" encoding="UTF-8" standalone="no"?>
<!-- Created with Inkscape (http://www.inkscape.org/) -->

<svg
   width="640"
   height="480"
   viewBox="0 0 169.33333 127"
   version="1.1"
   id="svg5"
   xml:space="preserve"
   inkscape:export-filename="appdmg.png"
   inkscape:export-xdpi="96"
   inkscape:export-ydpi="96"
   inkscape:version="1.2.2 (b0a8486541, 2022-12-01)"
   sodipodi:docname="appdmg.svg"
   xmlns:inkscape="http://www.inkscape.org/namespaces/inkscape"
   xmlns:sodipodi="http://sodipodi.sourceforge.net/DTD/sodipodi-0.dtd"
   xmlns:xlink="http://www.w3.org/1999/xlink"
   xmlns="http://www.w3.org/2000/svg"
   xmlns:svg="http://www.w3.org/2000/svg"><sodipodi:namedview
     id="namedview7"
     pagecolor="#505050"
     bordercolor="#eeeeee"
     borderopacity="1"
     inkscape:showpageshadow="0"
     inkscape:pageopacity="0"
     inkscape:pagecheckerboard="0"
     inkscape:deskcolor="#505050"
     inkscape:document-units="mm"
     showgrid="false"
     inkscape:zoom="0.51150168"
     inkscape:cx="-179.86256"
     inkscape:cy="205.27792"
     inkscape:window-width="1872"
     inkscape:window-height="1011"
     inkscape:window-x="48"
     inkscape:window-y="37"
     inkscape:window-maximized="1"
     inkscape:current-layer="layer1" /><defs
     id="defs2"><inkscape:perspective
       sodipodi:type="inkscape:persp3d"
       inkscape:vp_x="0 : -13.033333 : 1"
       inkscape:vp_y="0 : 1000 : 0"
       inkscape:vp_z="209.99999 : -13.033333 : 1"
       inkscape:persp3d-origin="105 : -62.533338 : 1"
       id="perspective1118" /><inkscape:perspective
       sodipodi:type="inkscape:persp3d"
       inkscape:vp_x="0 : -65.420835 : 1"
       inkscape:vp_y="0 : 1000 : 0"
       inkscape:vp_z="209.99999 : -65.420835 : 1"
       inkscape:persp3d-origin="105 : -114.92084 : 1"
       id="perspective1118-2" /></defs><g
     inkscape:label="Layer 1"
     inkscape:groupmode="layer"
     id="layer1"><image
       width="169.33333"
       height="127"
       preserveAspectRatio="none"
       xlink:href="appdmg.png"
       id="image242"
       x="321.92175"
       y="-110.43953" /><rect
       style="fill:#21252b;fill-opacity:1;stroke:none;stroke-width:3.23623;stroke-linecap:round"
       id="rect520"
       width="169.33333"
       height="127"
       x="2.5431314e-06"
       y="-1.5099033e-14" /><g
       inkscape:label="Layer 1"
       id="layer1-5"
       transform="matrix(0.42115622,0,0,0.42115622,56.140352,16.982006)"><rect
         style="fill:#21252b;fill-opacity:1;stroke-width:1.44832;stroke-linecap:round;stroke-linejoin:round"
         id="rect1666"
         width="135.46666"
         height="135.46666"
         x="3.5603841e-06"
         y="3.5603841e-06"
         rx="20"
         ry="20" /><path
         style="fill:#80b3ff;stroke-width:4.42046;stroke-linecap:round;stroke-linejoin:round"
         d="m 70.270199,141.5967 c -2.792014,-0.0317 -4.682875,4.27355 -2.396106,6.93638 1.060489,1.23489 3.876325,1.14099 4.973055,-0.16589 1.561984,-1.86127 0.818194,-5.46834 -1.334983,-6.47383 -0.426096,-0.19896 -0.843101,-0.29213 -1.241966,-0.29666 z"
         id="path1571" /><path
         style="fill:#80b3ff;stroke-width:4.42046;stroke-linecap:round;stroke-linejoin:round"
         d="m 80.117048,132.19638 c -1.921752,-0.0775 -3.734729,1.60386 -3.734729,3.8618 0,2.99787 3.044767,4.81777 5.312902,3.17533 2.056048,-1.48884 1.901882,-5.59786 -0.250984,-6.68805 -0.43409,-0.21982 -0.883706,-0.3312 -1.327189,-0.34908 z"
         id="path1569" /><path
         style="fill:#80b3ff;stroke-width:4.42046;stroke-linecap:round;stroke-linejoin:round"
         d="m 34.113481,113.90409 c -2.716434,-0.0243 -4.880893,4.32507 -2.347265,7.00609 1.280149,1.35462 3.537554,1.4011 4.727261,0.0972 1.454034,-1.59358 1.213781,-4.87228 -0.462489,-6.31353 -0.634744,-0.54575 -1.290646,-0.78415 -1.917507,-0.78977 z"
         id="path1567" /><path
         style="fill:#3771c8;stroke-width:4.42046;stroke-linecap:round;stroke-linejoin:round"
         d="m 90.007026,74.402686 c -0.882068,-0.03072 -1.750238,0.412224 -2.212154,1.25741 -0.552327,1.010618 -0.654897,22.749556 -0.111193,23.562127 0.891139,1.331867 2.727094,1.511877 3.882299,0.380633 l 0.777916,-0.761779 V 87.250074 75.659081 l -0.818455,-0.674257 c -0.454646,-0.374617 -0.989174,-0.563723 -1.518413,-0.582138 z"
         id="path1565" /><path
         style="fill:#e6e6e6;stroke-width:4.42046;stroke-linecap:round;stroke-linejoin:round"
         d="m 71.674818,44.870004 c -2.50686,-0.003 -4.401159,1.920067 -4.381168,4.446996 0.02695,3.405221 3.521766,5.562576 6.186945,3.81906 3.252703,-2.127862 1.912702,-8.261791 -1.805777,-8.266056 z"
         id="path1563" /><path
         style="fill:#e6e6e6;stroke-width:4.42046;stroke-linecap:round;stroke-linejoin:round"
         d="m 51.769625,27.226532 0.06135,38.039931 0.06135,38.040447 0.877161,1.10221 c 0.482408,0.60635 3.388124,3.60981 6.457176,6.67431 l 5.579995,5.5716 -1.184798,1.16887 c -15.797373,15.58618 -19.967027,19.74588 -19.967027,19.91812 0,0.65015 18.67809,19.14026 19.623017,19.42555 0.895803,0.27047 1.907944,0.089 2.521341,-0.45239 0.843845,-0.74463 0.816906,-3.72187 -0.03379,-3.72187 -0.203833,0 -13.422575,-13.48513 -13.548827,-13.82188 -0.04696,-0.1252 4.827115,-5.04479 10.831578,-10.93253 l 10.917323,-10.70506 -1.490869,-1.61515 c -0.819973,-0.88843 -3.730143,-3.90191 -6.467051,-6.69619 -2.736898,-2.7943 -5.533788,-5.69993 -6.215012,-6.45703 L 58.5542,101.38898 V 83.615739 l -5.13e-4,-17.773235 7.915827,0.08144 C 78.446391,66.046729 81.871299,65.556948 85.326053,63.226942 99.15418,53.900747 95.600205,32.185738 79.573006,28.076357 77.615718,27.574514 74.89853,27.46393 61.081785,27.322219 Z m 6.784032,7.090561 8.447941,0.169963 c 8.946801,0.179898 11.192331,0.440052 13.441792,1.556124 7.725479,3.833003 9.034307,16.466657 2.164861,20.898705 -1.810302,1.167987 -3.45417,1.406821 -10.896025,1.581057 -3.79799,0.08893 -8.312418,0.229007 -10.031837,0.311427 l -3.12622,0.149609 V 46.650535 h -5.12e-4 z"
         id="path1561" /><path
         style="fill:#afc6e9;stroke-width:4.42046;stroke-linecap:round;stroke-linejoin:round"
         d="m 104.02406,26.985836 c -0.52599,0.05449 -1.06139,0.332363 -1.56987,0.829962 l -0.66514,0.651353 -0.0697,35.271687 -0.0691,35.27169 0.82156,0.676798 c 0.97169,0.800654 2.31141,0.893154 3.16312,0.217801 h 5.2e-4 l 0.57941,-0.45951 0.0484,-35.648258 0.0489,-35.647742 -0.77532,-0.652879 c -0.47036,-0.396202 -0.98671,-0.565396 -1.5127,-0.510902 z"
         id="path1559" /><path
         style="fill:#d7e3f4;stroke-width:4.42046;stroke-linecap:round;stroke-linejoin:round"
         d="m 119.00712,26.929352 c -0.47287,0.02565 -0.92652,0.264743 -1.44982,0.722588 l -0.86885,0.760253 -0.0701,35.235045 -0.0701,35.235059 0.46924,0.511415 c 1.00818,1.098208 2.89124,1.189798 3.91194,0.190317 l 0.54822,-0.53686 V 63.566334 28.084991 l -0.9042,-0.596396 c -0.60133,-0.396843 -1.09334,-0.584895 -1.56622,-0.559243 z"
         id="path1557" /><path
         style="fill:#80b3ff;stroke-width:4.42046;stroke-linecap:round;stroke-linejoin:round"
         d="m 81.601692,-3.1763122 c -1.78103,0.07023 -3.434894,1.7304468 -3.434894,4.14422325 0,3.13904905 2.954768,4.81803025 5.374223,3.05371815 1.851501,-1.350138 2.073816,-4.61451736 0.424557,-6.2295647 -0.71856,-0.7036495 -1.554331,-1.0002984 -2.363886,-0.9683767 z"
         id="path1555" /><path
         style="fill:#87aade;stroke-width:4.42046;stroke-linecap:round;stroke-linejoin:round"
         d="m 75.063456,-11.48155 c -1.17948,0.008 -2.431413,0.627861 -3.155323,1.9469294 -0.247524,0.4510313 -1.101828,1.416191 -1.898793,2.1443709 C 68.164315,-5.7044502 62.049439,0.23150381 41.990854,19.80825 L 25.890539,35.521583 25.693596,45.793091 c -0.108166,5.64926 -0.137081,19.122635 -0.06445,29.941302 l 0.131983,19.670296 0.481725,0.721071 c 0.26477,0.396577 3.991576,4.13916 8.281659,8.31644 4.695855,4.57238 7.799942,7.78956 7.799942,8.08387 0,1.88105 3.316647,3.08226 4.823394,1.74696 0.631175,-0.55936 1.123408,-2.30538 0.897956,-3.18502 -0.193454,-0.75479 -4.829136,-5.51308 -5.371105,-5.51308 -0.275711,0 -0.35127,-0.9547 -0.354398,-4.49432 -0.002,-2.471887 -0.06979,-19.923264 -0.150697,-38.781355 L 42.022007,28.011717 45.265146,24.91169 C 69.703913,1.5489635 77.976592,-6.941305 77.976592,-8.659876 c 0,-1.830056 -1.396686,-2.831912 -2.913157,-2.821674 z M 37.246448,31.981899 37.22151,63.372453 c -0.01368,17.264753 -0.09834,32.553016 -0.188114,33.974085 l -0.163177,2.583522 -2.993181,-3.071027 -2.993181,-3.071017 0.01347,-27.650883 0.01298,-27.651385 3.168303,-3.251674 z"
         id="path1553" /><path
         style="fill:#3771c8;stroke-width:4.42046;stroke-linecap:round;stroke-linejoin:round"
         d="m 63.14632,-21.817682 c -1.214002,0.07917 -2.361212,0.81236 -2.600843,2.273114 -0.318398,1.940911 -0.389804,2.079579 -1.255994,2.428828 -0.540351,0.21787 -9.229351,8.566712 -23.014781,22.1138875 L 14.128264,26.761428 14.108551,30.93007 c -0.01075,2.292753 -0.04204,19.222673 -0.06958,37.621646 l -0.04987,33.452484 5.001624,5.07088 c 2.750956,2.78899 5.200206,5.36777 5.442813,5.73036 0.934721,1.39696 2.637667,1.94494 4.216444,1.35715 0.712638,-0.26533 1.16874,-0.69632 1.721078,-1.62736 0.28472,-0.47992 0.57091,-0.16983 -9.663934,-10.45571 l -1.795903,-1.80496 V 64.647173 c 0,-23.741466 0.0897,-35.656506 0.268652,-35.71492 C 19.327581,28.884 29.05545,19.464829 40.797312,8.0009792 52.539184,-3.4628855 63.017087,-13.65435 64.08179,-14.646711 c 2.036428,-1.898065 2.285109,-2.373665 2.291133,-4.38848 0.006,-1.904528 -1.66565,-2.884278 -3.226507,-2.782491 z"
         id="path1551" /></g><rect
       style="fill:#e6e6e6;fill-opacity:1;stroke:none;stroke-width:1.65148;stroke-linecap:round"
       id="rect2284"
       width="34.185867"
       height="42.064732"
       x="33.686333"
       y="68.141693"
       rx="3.2" /><rect
       style="fill:#e6e6e6;fill-opacity:1;stroke:none;stroke-width:1.65148;stroke-linecap:round"
       id="rect2338"
       width="34.185867"
       height="42.064732"
       x="101.41972"
       y="68.141693"
       rx="3.2" /><g
       id="g2398"
       style="fill:#3771c8;fill-opacity:1"><path
         sodipodi:type="star"
         style="fill:#3771c8;fill-opacity:1;stroke:none;stroke-width:2;stroke-linecap:round"
         id="path2392"
         inkscape:flatsided="true"
         sodipodi:sides="3"
         sodipodi:cx="-4.3996773"
         sodipodi:cy="139.54179"
         sodipodi:r1="14.145475"
         sodipodi:r2="7.0727377"
         sodipodi:arg1="2.1039352"
         sodipodi:arg2="3.1511327"
         inkscape:rounded="0"
         inkscape:randomized="0"
         d="m -11.588961,151.7241 0.233736,-24.49956 21.1003794,12.4522 z"
         inkscape:transform-center-x="-1.6965039"
         inkscape:transform-center-y="-0.053580773"
         transform="matrix(0.48781321,0,0,0.79407828,93.115373,-17.68089)" /><rect
         style="fill:#3771c8;fill-opacity:1;stroke:none;stroke-width:1.3362;stroke-linecap:round"
         id="rect2394"
         width="16.858778"
         height="9.5876503"
         x="71.768929"
         y="88.323204" /></g><path
       style="fill:#80b3ff;stroke-width:3.05759;stroke-linecap:round;stroke-linejoin:round"
       d="m -6.2792152,177.99147 c -1.925066,-0.0164 -3.4589626,2.91992 -1.6634456,4.72991 0.907208,0.91452 2.506973,0.9459 3.3500878,0.0656 1.0304356,-1.07584 0.8601747,-3.28934 -0.3277543,-4.26235 -0.4498271,-0.36844 -0.9146473,-0.52939 -1.3588879,-0.53318 z"
       id="path1567-0" /><path
       style="fill:#87aade;stroke-width:3.05759;stroke-linecap:round;stroke-linejoin:round"
       d="m 22.740971,93.34189 c -0.835867,0.0054 -1.723079,0.423878 -2.236096,1.314399 -0.175414,0.304498 -0.780836,0.95609 -1.345625,1.447695 -1.307521,1.138106 -5.640975,5.145556 -19.85597509,18.362086 l -11.40987591,10.60829 -0.139568,6.93444 c -0.07666,3.81389 -0.09715,12.90995 -0.04567,20.21378 l 0.09353,13.27969 0.341387,0.48682 c 0.187635,0.26773 2.8287261,2.7944 5.8689971,5.61454 3.3278307,3.08688 5.52761644,5.25884 5.52761644,5.45753 0,1.26992 2.35042126,2.08088 3.41821396,1.17939 0.4472973,-0.37763 0.7961308,-1.55639 0.6363586,-2.15025 -0.1370964,-0.50957 -3.4222837,-3.72196 -3.80636329,-3.72196 -0.1953889,0 -0.24893567,-0.64453 -0.25115266,-3.03418 -0.00147,-1.6688 -0.0494624,-13.45047 -0.10679544,-26.18182 l -0.10459314,-23.148 2.29832833,-2.09287 C 18.942805,102.13897 24.805438,96.407073 24.805438,95.246841 c 0,-1.235496 -0.989795,-1.911863 -2.064479,-1.904951 z m -26.7999332,29.34278 -0.017677,21.19219 c -0.00966,11.65568 -0.06969,21.977 -0.1333122,22.93638 l -0.1156392,1.74417 -2.1211897,-2.07329 -2.1211897,-2.07329 0.00955,-18.66749 0.00924,-18.66783 2.2452938,-2.19525 z"
       id="path1553-6" /><path
       style="fill:#3771c8;stroke-width:3.05759;stroke-linecap:round;stroke-linejoin:round"
       d="m 14.295605,86.363824 c -0.860331,0.05345 -1.67333,0.548435 -1.84315,1.53461 -0.22564,1.310336 -0.276243,1.403953 -0.89009,1.639736 -0.382932,0.147087 -6.5406016,5.783506 -16.3099782,14.92939 l -15.6946078,14.6927 -0.01397,2.8143 c -0.0077,1.54787 -0.02979,12.9775 -0.04932,25.3989 l -0.03534,22.58423 3.54452,3.42342 c 1.949531,1.88289 3.685252,3.62386 3.857181,3.86865 0.662412,0.94311 1.869246,1.31306 2.988084,0.91623 0.5050286,-0.17912 0.8282565,-0.47009 1.219684,-1.09864 0.2017733,-0.32401 0.4045889,-0.11466 -6.848579,-7.0588 l -1.27271,-1.21855 v -24.05255 c 0,-16.02819 0.06357,-24.0722 0.190386,-24.11164 0.104677,-0.0326 6.9985639,-6.39159 15.3197169,-14.13099 8.3211604,-7.739418 15.7465791,-14.619817 16.5011061,-15.289774 1.443164,-1.28141 1.619398,-1.602494 1.623667,-2.962724 0.0043,-1.285773 -1.180403,-1.947216 -2.286542,-1.878498 z"
       id="path1551-1" /><path
       d="m 129.76549,24.275963 a 4.7467586,4.7467586 0 0 1 -4.74677,-4.74676 4.7467586,4.7467586 0 0 1 4.74677,-4.74676 4.7467586,4.7467586 0 0 1 4.74675,4.74676 4.7467586,4.7467586 0 0 1 -4.74675,4.74676 m 10.07669,-3.43123 c 0.0543,-0.434005 0.0949,-0.867976 0.0949,-1.31553 0,-0.447538 -0.0405,-0.895102 -0.0949,-1.356215 l 2.86161,-2.210635 c 0.2577,-0.203455 0.3255,-0.569611 0.16276,-0.867975 l -2.71245,-4.692515 c -0.16275,-0.298376 -0.52892,-0.4204218 -0.82729,-0.298376 l -3.37698,1.356216 c -0.70523,-0.528913 -1.43759,-0.990028 -2.292,-1.329079 l -0.50182,-3.5939758 c -0.0543,-0.325491 -0.33908,-0.569611 -0.67812,-0.569611 h -5.42486 c -0.33907,0 -0.62386,0.244156 -0.67811,0.569611 l -0.50182,3.5939758 c -0.85442,0.339025 -1.58678,0.800166 -2.29201,1.329089 l -3.37698,-1.356215 c -0.29838,-0.1220518 -0.66455,0 -0.8273,0.298375 l -2.71243,4.692513 c -0.17634,0.298377 -0.0949,0.664544 0.16276,0.867978 l 2.86161,2.210634 c -0.0542,0.461124 -0.0949,0.908667 -0.0949,1.356216 0,0.447538 0.0405,0.88154 0.0949,1.315529 l -2.86162,2.251321 c -0.2577,0.203455 -0.33908,0.569608 -0.16275,0.867981 l 2.71243,4.692507 c 0.16275,0.298378 0.52892,0.406839 0.82729,0.298378 l 3.37698,-1.36978 c 0.70523,0.542487 1.43759,1.003603 2.29201,1.342659 l 0.50182,3.593968 c 0.0543,0.325494 0.33907,0.569611 0.67811,0.569611 h 5.42487 c 0.33908,0 0.62386,-0.244078 0.67811,-0.569611 l 0.50182,-3.593968 c 0.85441,-0.352608 1.58677,-0.800172 2.29201,-1.342659 l 3.37697,1.36978 c 0.29838,0.108511 0.66455,0 0.82729,-0.298378 l 2.71244,-4.692507 c 0.16275,-0.298376 0.0949,-0.664547 -0.16276,-0.867981 z"
       id="path2702"
       style="fill:#87aade;fill-opacity:1;stroke-width:1.35622" /><path
       d="m 147.92339,45.968925 a 5.0967063,5.0967063 0 0 1 -5.09671,-5.096709 5.0967063,5.0967063 0 0 1 5.09671,-5.096706 5.0967063,5.0967063 0 0 1 5.0967,5.096706 5.0967063,5.0967063 0 0 1 -5.0967,5.096709 m 10.81958,-3.684189 c 0.0582,-0.466004 0.10194,-0.931969 0.10194,-1.41252 0,-0.480532 -0.0435,-0.961092 -0.10194,-1.4562 l 3.07258,-2.373609 c 0.27667,-0.218426 0.34949,-0.611605 0.17478,-0.931966 l -2.91244,-5.038465 c -0.17475,-0.320372 -0.56791,-0.451416 -0.88828,-0.320372 l -3.62594,1.4562 c -0.75723,-0.567905 -1.54358,-1.063019 -2.46098,-1.427065 l -0.53882,-3.858936 c -0.0582,-0.349487 -0.36407,-0.611604 -0.7281,-0.611604 h -5.82481 c -0.36407,0 -0.66985,0.262156 -0.7281,0.611604 l -0.53882,3.858936 c -0.91741,0.364018 -1.70376,0.85916 -2.46098,1.427076 l -3.62595,-1.456203 c -0.32037,-0.13105 -0.71354,0 -0.88828,0.320376 l -2.9124,5.038462 c -0.18932,0.320375 -0.10195,0.713533 0.17478,0.931968 l 3.07258,2.373609 c -0.0582,0.495116 -0.10191,0.975657 -0.10191,1.4562 0,0.480535 0.0435,0.94653 0.10191,1.412517 l -3.07258,2.417295 c -0.27667,0.218426 -0.36407,0.611604 -0.17478,0.931971 l 2.9124,5.038456 c 0.17475,0.320376 0.56792,0.436833 0.88828,0.320376 l 3.62595,-1.470762 c 0.75722,0.582478 1.54357,1.077589 2.46098,1.441641 l 0.53882,3.85893 c 0.0582,0.349487 0.36407,0.611604 0.7281,0.611604 h 5.82481 c 0.36407,0 0.66985,-0.2621 0.72809,-0.611604 l 0.53882,-3.85893 c 0.9174,-0.3786 1.70376,-0.859163 2.46098,-1.441641 l 3.62594,1.470762 c 0.32038,0.11651 0.71354,0 0.88829,-0.320376 l 2.9124,-5.038456 c 0.17478,-0.32037 0.10192,-0.713539 -0.17478,-0.931971 z"
       id="path3124"
       style="fill:#3771c8;fill-opacity:1;stroke-width:1.4562" /></g></svg>
